<svg version="1.1" xmlns="http://www.w3.org/2000/svg" xmlns:xlink="http://www.w3.org/1999/xlink" width="163" height="30" viewBox="0 0 163 30">
<g id="Logo">
<path id="moBIFLIX" d="M85.195,29.041 L85.195,1.340 L89.835,1.340 L89.835,29.041 L85.195,29.041 zM79.093,26.667 C78.355,27.410 77.499,27.992 76.523,28.411 C75.547,28.831 74.512,29.041 73.418,29.041 C73.418,29.041 66.709,29.041 66.709,29.041 L62.069,29.041 L62.069,1.340 C62.069,1.340 71.455,1.340 71.455,1.340 C72.550,1.340 73.584,1.550 74.560,1.970 C75.536,2.390 76.392,2.971 77.130,3.714 C77.867,4.458 78.444,5.321 78.861,6.305 C79.277,7.288 79.485,8.332 79.485,9.434 C79.485,10.298 79.348,11.143 79.075,11.971 C78.801,12.798 78.415,13.560 77.915,14.255 C79.009,15.023 79.872,15.988 80.502,17.151 C81.133,18.315 81.448,19.579 81.448,20.947 C81.448,22.074 81.240,23.123 80.824,24.094 C80.407,25.066 79.830,25.923 79.093,26.667 zM74.578,8.121 C74.400,7.702 74.155,7.336 73.847,7.024 C73.537,6.713 73.174,6.467 72.758,6.287 C72.342,6.107 71.907,6.017 71.455,6.017 C71.455,6.017 66.709,6.017 66.709,6.017 L66.709,12.852 C66.709,12.852 71.455,12.852 71.455,12.852 C71.907,12.852 72.342,12.762 72.758,12.582 C73.174,12.402 73.537,12.157 73.847,11.845 C74.155,11.533 74.400,11.174 74.578,10.766 C74.757,10.358 74.846,9.915 74.846,9.434 C74.846,8.979 74.757,8.541 74.578,8.121 zM76.541,19.633 C76.363,19.214 76.118,18.848 75.809,18.536 C75.500,18.225 75.137,17.979 74.721,17.799 C74.304,17.619 73.870,17.529 73.418,17.529 C73.418,17.529 66.709,17.529 66.709,17.529 L66.709,24.364 C66.709,24.364 73.418,24.364 73.418,24.364 C73.870,24.364 74.304,24.274 74.721,24.094 C75.137,23.914 75.500,23.669 75.809,23.357 C76.118,23.045 76.363,22.686 76.541,22.278 C76.719,21.870 76.809,21.427 76.809,20.947 C76.809,20.491 76.719,20.053 76.541,19.633 zM54.200,25.246 C52.927,26.529 51.435,27.542 49.721,28.285 C48.008,29.029 46.176,29.401 44.225,29.401 C42.274,29.401 40.442,29.029 38.729,28.285 C37.016,27.542 35.523,26.529 34.251,25.246 C32.977,23.963 31.972,22.457 31.235,20.731 C30.497,19.004 30.129,17.157 30.129,15.191 C30.129,13.224 30.497,11.377 31.235,9.650 C31.972,7.924 32.977,6.419 34.251,5.135 C35.523,3.853 37.016,2.839 38.729,2.096 C40.442,1.352 42.274,0.980 44.225,0.980 C46.176,0.980 48.008,1.352 49.721,2.096 C51.435,2.839 52.927,3.853 54.200,5.135 C55.473,6.419 56.478,7.924 57.216,9.650 C57.953,11.377 58.322,13.224 58.322,15.191 C58.322,17.157 57.953,19.004 57.216,20.731 C56.478,22.457 55.473,23.963 54.200,25.246 zM52.880,11.521 C52.392,10.370 51.720,9.363 50.864,8.499 C50.007,7.636 49.008,6.958 47.866,6.467 C46.724,5.975 45.510,5.729 44.225,5.729 C42.941,5.729 41.727,5.975 40.585,6.467 C39.443,6.958 38.444,7.636 37.587,8.499 C36.731,9.363 36.058,10.370 35.571,11.521 C35.083,12.672 34.839,13.895 34.839,15.191 C34.839,16.486 35.083,17.709 35.571,18.860 C36.058,20.011 36.731,21.018 37.587,21.882 C38.444,22.745 39.443,23.423 40.585,23.914 C41.727,24.406 42.941,24.652 44.225,24.652 C45.510,24.652 46.724,24.406 47.866,23.914 C49.008,23.423 50.007,22.745 50.864,21.882 C51.720,21.018 52.392,20.011 52.880,18.860 C53.367,17.709 53.612,16.486 53.612,15.191 C53.612,13.895 53.367,12.672 52.880,11.521 zM21.778,14.543 L13.337,25.587 L4.897,14.543 L4.897,29.041 L0.258,29.041 L0.258,0.261 L13.337,18.284 L26.417,0.261 L26.417,29.041 L21.778,29.041 L21.778,14.543 z" fill="#d33676" />
<path id="moBIFLIX-copy" d="M162.567,29.041 L157.214,29.041 L151.789,19.795 L146.400,29.041 L141.011,29.041 L149.112,15.191 L141.011,1.340 L146.400,1.340 L151.789,10.586 L157.214,1.340 L162.567,1.340 L154.501,15.191 L162.567,29.041 zM133.695,1.340 L138.335,1.340 L138.335,29.041 L133.695,29.041 L133.695,1.340 zM114.816,1.340 L119.456,1.340 L119.456,24.364 L131.947,24.364 L131.947,29.041 L114.816,29.041 L114.816,1.340 zM99.292,12.852 L110.355,12.852 L110.355,17.529 L99.292,17.529 L99.292,29.041 L94.652,29.041 L94.652,1.340 L111.783,1.340 L111.783,6.017 L99.292,6.017 L99.292,12.852 z" fill="#773ba2" />
<path id="Shape-1" d="M43.936,29.380 C43.936,29.380 48.237,30.376 53.049,29.815 C57.557,29.290 62.163,26.337 62.163,26.337 L59.559,23.728 C59.559,23.728 56.094,26.914 52.615,28.076 C48.361,29.497 43.936,29.380 43.936,29.380 z" fill="#D33676" />
<path id="Ellipse-1" d="M43.621,4.738 C49.703,4.738 54.634,9.667 54.634,15.748 C54.634,21.829 49.703,26.758 43.621,26.758 C37.539,26.758 32.608,21.829 32.608,15.748 C32.608,9.667 37.539,4.738 43.621,4.738 z" fill="#D33676" />
<path id="Ellipse-2" d="M44.443,3.725 C47.713,3.725 47.725,5.382 47.725,7.425 C47.725,9.469 46.482,11.125 44.443,11.125 C42.404,11.125 41.161,9.469 41.161,7.425 C41.161,5.382 40.762,3.725 44.443,3.725 z" fill="#1B212D" />
<path id="Ellipse-2-copy" d="M44.443,26.337 C47.713,26.337 47.725,24.680 47.725,22.637 C47.725,20.593 46.482,18.936 44.443,18.936 C42.404,18.936 41.161,20.593 41.161,22.637 C41.161,24.680 40.762,26.337 44.443,26.337 z" fill="#1B212D" />
<path id="Ellipse-2-copy-2" d="M32.954,15.230 C32.954,11.960 34.608,11.948 36.647,11.948 C38.687,11.948 40.340,13.191 40.340,15.230 C40.340,17.270 38.687,18.513 36.647,18.513 C34.608,18.513 32.954,18.911 32.954,15.230 z" fill="#1B212D" />
<path id="Ellipse-2-copy-3" d="M55.521,15.230 C55.521,11.960 53.868,11.948 51.829,11.948 C49.789,11.948 48.136,13.191 48.136,15.230 C48.136,17.270 49.789,18.513 51.829,18.513 C53.868,18.513 55.521,18.911 55.521,15.230 z" fill="#1B212D" />
<path id="Ellipse-3" d="M44.021,13.727 C44.860,13.727 45.540,14.408 45.540,15.248 C45.540,16.089 44.860,16.770 44.021,16.770 C43.182,16.770 42.502,16.089 42.502,15.248 C42.502,14.408 43.182,13.727 44.021,13.727 z" fill="#1B212D" />
</g>
</svg>
